<?xml version="1.0" encoding="UTF-8" standalone="no"?>
<!DOCTYPE svg PUBLIC "-//W3C//DTD SVG 1.1//EN"
 "http://www.w3.org/Graphics/SVG/1.1/DTD/svg11.dtd">
<!-- Generated by graphviz version 12.0.0 (0)
 -->
<!-- Pages: 1 -->
<svg width="326pt" height="154pt"
 viewBox="0.00 0.00 326.12 154.00" xmlns="http://www.w3.org/2000/svg" xmlns:xlink="http://www.w3.org/1999/xlink">
<g id="graph0" class="graph" transform="scale(1 1) rotate(0) translate(4 150)">
<polygon fill="white" stroke="none" points="-4,4 -4,-150 322.12,-150 322.12,4 -4,4"/>
<!-- a -->
<g id="node1" class="node">
<title>a</title>
<ellipse fill="white" stroke="black" cx="27" cy="-109" rx="27" ry="18"/>
<text text-anchor="middle" x="27" y="-103.95" font-family="Times,serif" font-size="14.00">a</text>
</g>
<!-- obs -->
<g id="node4" class="node">
<title>obs</title>
<ellipse fill="grey" stroke="black" cx="99" cy="-18" rx="27" ry="18"/>
<text text-anchor="middle" x="99" y="-12.95" font-family="Times,serif" font-size="14.00">obs</text>
</g>
<!-- a&#45;&gt;obs -->
<g id="edge1" class="edge">
<title>a&#45;&gt;obs</title>
<path fill="none" stroke="black" d="M39.21,-92.9C50.21,-79.3 66.58,-59.08 79.41,-43.22"/>
<polygon fill="black" stroke="black" points="81.96,-45.62 85.53,-35.65 76.52,-41.22 81.96,-45.62"/>
</g>
<!-- b -->
<g id="node2" class="node">
<title>b</title>
<ellipse fill="white" stroke="black" cx="99" cy="-109" rx="27" ry="18"/>
<text text-anchor="middle" x="99" y="-103.95" font-family="Times,serif" font-size="14.00">b</text>
</g>
<!-- b&#45;&gt;obs -->
<g id="edge2" class="edge">
<title>b&#45;&gt;obs</title>
<path fill="none" stroke="black" d="M99,-90.84C99,-78.61 99,-61.87 99,-47.63"/>
<polygon fill="black" stroke="black" points="102.5,-47.92 99,-37.92 95.5,-47.92 102.5,-47.92"/>
</g>
<!-- s -->
<g id="node3" class="node">
<title>s</title>
<ellipse fill="white" stroke="black" cx="171" cy="-109" rx="27" ry="18"/>
<text text-anchor="middle" x="171" y="-103.95" font-family="Times,serif" font-size="14.00">s</text>
</g>
<!-- s&#45;&gt;obs -->
<g id="edge3" class="edge">
<title>s&#45;&gt;obs</title>
<path fill="none" stroke="black" d="M158.79,-92.9C147.79,-79.3 131.42,-59.08 118.59,-43.22"/>
<polygon fill="black" stroke="black" points="121.48,-41.22 112.47,-35.65 116.04,-45.62 121.48,-41.22"/>
</g>
<!-- distribution_description_node -->
<g id="node5" class="node">
<title>distribution_description_node</title>
<text text-anchor="start" x="223.88" y="-128.7" font-family="Times,serif" font-size="14.00">a ~ Normal</text>
<text text-anchor="start" x="223.88" y="-112.2" font-family="Times,serif" font-size="14.00">b ~ Normal</text>
<text text-anchor="start" x="223.88" y="-95.7" font-family="Times,serif" font-size="14.00">s ~ HalfNormal</text>
<text text-anchor="start" x="223.88" y="-79.2" font-family="Times,serif" font-size="14.00">obs ~ Normal</text>
</g>
</g>
</svg>
