<?xml version="1.0" encoding="UTF-8" standalone="no"?>
<!DOCTYPE svg PUBLIC "-//W3C//DTD SVG 1.1//EN"
 "http://www.w3.org/Graphics/SVG/1.1/DTD/svg11.dtd">
<!-- Generated by graphviz version 12.0.0 (0)
 -->
<!-- Pages: 1 -->
<svg width="293pt" height="154pt"
 viewBox="0.00 0.00 292.75 154.00" xmlns="http://www.w3.org/2000/svg" xmlns:xlink="http://www.w3.org/1999/xlink">
<g id="graph0" class="graph" transform="scale(1 1) rotate(0) translate(4 150)">
<polygon fill="white" stroke="none" points="-4,4 -4,-150 288.75,-150 288.75,4 -4,4"/>
<g id="clust1" class="cluster">
<title>cluster_male</title>
<polygon fill="none" stroke="black" points="67,-58.5 67,-135 137,-135 137,-58.5 67,-58.5"/>
<text text-anchor="middle" x="115.5" y="-65.7" font-family="Times,serif" font-size="14.00">male</text>
</g>
<!-- s -->
<g id="node1" class="node">
<title>s</title>
<ellipse fill="white" stroke="black" cx="27" cy="-109" rx="27" ry="18"/>
<text text-anchor="middle" x="27" y="-103.95" font-family="Times,serif" font-size="14.00">s</text>
</g>
<!-- obs -->
<g id="node3" class="node">
<title>obs</title>
<ellipse fill="grey" stroke="black" cx="27" cy="-18" rx="27" ry="18"/>
<text text-anchor="middle" x="27" y="-12.95" font-family="Times,serif" font-size="14.00">obs</text>
</g>
<!-- s&#45;&gt;obs -->
<g id="edge3" class="edge">
<title>s&#45;&gt;obs</title>
<path fill="none" stroke="black" d="M27,-90.84C27,-78.61 27,-61.87 27,-47.63"/>
<polygon fill="black" stroke="black" points="30.5,-47.92 27,-37.92 23.5,-47.92 30.5,-47.92"/>
</g>
<!-- diff_a -->
<g id="node2" class="node">
<title>diff_a</title>
<ellipse fill="white" stroke="black" stroke-dasharray="5,2" cx="105" cy="-18" rx="32.93" ry="18"/>
<text text-anchor="middle" x="105" y="-12.95" font-family="Times,serif" font-size="14.00">diff_a</text>
</g>
<!-- a -->
<g id="node4" class="node">
<title>a</title>
<ellipse fill="white" stroke="black" cx="102" cy="-109" rx="27" ry="18"/>
<text text-anchor="middle" x="102" y="-103.95" font-family="Times,serif" font-size="14.00">a</text>
</g>
<!-- a&#45;&gt;diff_a -->
<g id="edge1" class="edge">
<title>a&#45;&gt;diff_a</title>
<path fill="none" stroke="black" d="M102.58,-90.84C102.99,-78.61 103.55,-61.87 104.03,-47.63"/>
<polygon fill="black" stroke="black" points="107.52,-48.04 104.36,-37.92 100.53,-47.8 107.52,-48.04"/>
</g>
<!-- a&#45;&gt;obs -->
<g id="edge2" class="edge">
<title>a&#45;&gt;obs</title>
<path fill="none" stroke="black" d="M90.33,-92.61C82.72,-82.72 72.48,-69.68 63,-58.5 58.46,-53.15 53.47,-47.52 48.68,-42.23"/>
<polygon fill="black" stroke="black" points="51.29,-39.9 41.96,-34.9 46.13,-44.63 51.29,-39.9"/>
</g>
<!-- distribution_description_node -->
<g id="node5" class="node">
<title>distribution_description_node</title>
<text text-anchor="start" x="155.25" y="-128.7" font-family="Times,serif" font-size="14.00">a ~ HalfNormal</text>
<text text-anchor="start" x="155.25" y="-112.2" font-family="Times,serif" font-size="14.00">s ~ HalfNormal</text>
<text text-anchor="start" x="155.25" y="-95.7" font-family="Times,serif" font-size="14.00">diff_a ~ Deterministic</text>
<text text-anchor="start" x="155.25" y="-79.2" font-family="Times,serif" font-size="14.00">obs ~ Normal</text>
</g>
</g>
</svg>
